<?xml version="1.0" encoding="utf-8"?>
<!-- Generator: Adobe Illustrator 16.0.0, SVG Export Plug-In . SVG Version: 6.00 Build 0)  -->
<!DOCTYPE svg PUBLIC "-//W3C//DTD SVG 1.1//EN" "http://www.w3.org/Graphics/SVG/1.1/DTD/svg11.dtd">
<svg version="1.1" id="Livello_1" xmlns="http://www.w3.org/2000/svg" xmlns:xlink="http://www.w3.org/1999/xlink" x="0px" y="0px"
	 width="300px" height="64px" viewBox="0 0 300 64" enable-background="new 0 0 300 64" xml:space="preserve">
<g>
	<g>
		<path opacity="0.1" fill="#FFFFFF" d="M81.848,28.695c-1.971-2.594-5.199-5.727-7.412-7.53c0.063-0.561,0.029-1.127-0.104-1.66
			c-0.318-1.282-1.175-2.344-2.41-2.988c-0.859-0.449-1.809-0.604-2.86-0.435c-0.069,0.012-0.137,0.027-0.204,0.044l-0.102,0.023
			c-0.143,0.03-0.285,0.062-0.423,0.104c-0.073,0.021-0.143,0.047-0.211,0.072l-0.134,0.049c-0.104,0.036-0.207,0.073-0.307,0.116
			c-0.073,0.031-0.14,0.063-0.207,0.095l0.01,0.019c-4.578-2.829-19.043-10.944-34.17-10.944c-10.912,0-20.788,5.512-25.77,14.373
			L7.27,20.503C5.32,23.833,4.373,27.593,4.373,32c0,0.449,0.014,0.896,0.038,1.345l0.012,0.148
			C5.226,46.772,16.527,57.41,30.712,58.237l0.583,0.034c0.24,0.017,0.481,0.031,0.71,0.042l0.81,0.041l0.003-0.019
			c0.187,0.006,0.377,0.009,0.563,0.007l-0.04,0.088l1.474-0.125c0.692-0.032,1.417-0.094,2.193-0.185l0.221-0.019
			c6.22-0.525,12.479-3.461,17.205-8.084l0.063-0.061c0.326-0.323,0.646-0.653,0.958-0.992l-0.541-0.51l0,0l0.593,0.456
			c0.263-0.263,0.536-0.574,0.8-0.905c0.666-0.792,1.288-1.625,1.833-2.454c1.946-2.568,4.306-4.945,8.354-4.945l3.458,0.009
			c4.214,0,6.454-0.116,7.787-0.775c1.487-0.733,4.497-2.955,5.238-6.104C83.394,31.959,83.004,30.216,81.848,28.695z"/>
		<g>
			<g>
				<path fill="#FFFFFF" d="M33.314,9.519c-9.409,0-17.621,4.672-21.912,11.561c19.914,11.252,21.227,28.04,21.096,33.384
					c0.271,0.007,0.543,0.019,0.816,0.019c0.881,0,1.756-0.046,2.621-0.126c1.417-3.737,6.844-20.117,3.81-44.322
					C37.625,9.708,35.471,9.519,33.314,9.519z"/>
				<path fill="#FFFFFF" d="M83.273,27.612c-1.897-2.497-5.015-5.369-7.04-7.135c-0.011-0.25-0.035-0.503-0.074-0.756
					c-0.32-2.083-1.563-3.83-3.409-4.792c-0.884-0.462-1.845-0.696-2.856-0.696c-0.848,0-1.63,0.166-2.319,0.406
					c-5.286-3.172-19.491-10.771-34.26-10.771C16.368,3.868,2.582,16.488,2.582,32s13.786,28.133,30.732,28.133
					c9.101,0,17.671-3.653,23.528-10.026c0.279-0.285,0.564-0.61,0.869-0.99c0.68-0.812,1.314-1.662,1.891-2.53
					c1.97-2.589,3.824-4.188,6.893-4.188l3.456,0.009c4.59,0,6.918-0.14,8.58-0.961c1.749-0.863,5.294-3.5,6.188-7.3
					C85.256,31.866,84.742,29.544,83.273,27.612z M82.252,33.565c-0.703,2.986-3.734,5.062-4.843,5.608
					c-1.194,0.59-3.449,0.698-7.458,0.698l-3.456-0.009c-4.36,0-6.882,2.513-8.949,5.24l-0.014,0.018
					c-0.544,0.826-1.147,1.636-1.797,2.406c-0.256,0.322-0.512,0.614-0.756,0.859c-0.024,0.026-0.05,0.051-0.074,0.076
					c-0.303,0.33-0.614,0.651-0.933,0.966c-0.03,0.029-0.062,0.058-0.092,0.087c-4.573,4.476-10.595,7.328-16.716,7.846
					l-0.221,0.018c-0.717,0.084-1.438,0.149-2.165,0.183l-0.241,0.021l0.007-0.015c-0.409,0.016-0.819,0.031-1.23,0.031
					c-0.38,0-0.757-0.013-1.133-0.026l-0.001,0.005l-0.133-0.008c-0.26-0.011-0.518-0.028-0.775-0.046l-0.518-0.029
					C16.898,56.685,5.939,46.251,5.165,33.448C5.162,33.399,5.156,33.35,5.153,33.3C5.131,32.87,5.117,32.436,5.117,32
					c0-4.271,0.914-7.909,2.794-11.121l0.276-0.472c4.667-8.303,14.174-14.005,25.127-14.005c15.46,0,30.359,8.688,34.104,11.037
					c0.016-0.009,0.035-0.017,0.052-0.025c0.084-0.044,0.176-0.087,0.267-0.13c0.079-0.038,0.153-0.075,0.237-0.111
					c0.104-0.044,0.216-0.081,0.326-0.121c0.083-0.029,0.161-0.062,0.248-0.088c0.131-0.039,0.269-0.067,0.406-0.097
					c0.075-0.017,0.146-0.038,0.225-0.051c0.218-0.036,0.443-0.058,0.674-0.058c0.614,0,1.194,0.141,1.724,0.417
					c1.044,0.544,1.767,1.435,2.032,2.507c0.145,0.583,0.148,1.2,0.022,1.79c1.998,1.578,5.514,4.896,7.623,7.672
					C82.272,30.484,82.617,32.012,82.252,33.565z"/>
				<g>
					<path fill="#FFFFFF" d="M71.953,28.448c-0.953,0-1.729,0.775-1.729,1.729c0,0.952,0.775,1.728,1.729,1.728
						c0.952,0,1.728-0.775,1.728-1.728C73.681,29.223,72.905,28.448,71.953,28.448z M71.953,31.048c-0.48,0-0.872-0.391-0.872-0.872
						s0.392-0.873,0.872-0.873c0.481,0,0.873,0.392,0.873,0.873S72.435,31.048,71.953,31.048z"/>
					<path fill="#FFFFFF" d="M78.199,32.843c-0.088-0.726,0.126-1.421,0.422-2.006c0.039-0.078-0.664-0.819-0.741-0.911
						c-0.267-0.313-0.538-0.621-0.814-0.926c-1.88-2.066-3.932-4.128-6.262-5.688c-1.564-1.046-3.175-2.032-4.759-3.05
						c-1.521-0.959-6.323-3.849-12.691-6.392c6.45,8.975,7.189,17.871,5.938,25.084c1.884-1.313,4.204-2.209,7.204-2.209
						l3.456,0.008c1.313,0,5.312,0,6.078-0.376c0.651-0.321,1.831-1.218,2.575-2.271c-0.021-0.048-0.047-0.105-0.068-0.154
						C78.419,33.69,78.258,33.33,78.199,32.843z M70.568,33.759c-2.364,0-4.281-1.917-4.281-4.281c0-2.365,1.917-4.282,4.281-4.282
						c2.365,0,4.282,1.917,4.282,4.282C74.851,31.842,72.934,33.759,70.568,33.759z"/>
				</g>
			</g>
		</g>
	</g>
	<path fill="#FFFFFF" d="M208.266,29.42c-0.065,0-0.13,0.001-0.193,0.003c-5.337,0.092-9.169,3.987-9.169,9.285V56.15h2.943V45.471
		c1.764,1.593,4.18,2.523,6.871,2.523c4.946,0,8.835-4.002,8.835-9.286C217.553,33.347,213.815,29.42,208.266,29.42z
		 M208.115,45.277c-3.588,0-6.041-2.944-6.041-6.568c0-2.655,1.113-4.945,3.268-5.98c0.013-0.007,0.025-0.013,0.038-0.019
		c0.002-0.001,0.005-0.001,0.008-0.003c0.799-0.366,1.715-0.567,2.728-0.567c3.813,0,6.266,2.869,6.266,6.569
		S211.928,45.277,208.115,45.277z M275.548,32.018c-1.764-1.593-4.181-2.523-6.871-2.523c-4.946,0-8.835,4.002-8.835,9.287
		c0,5.361,3.738,9.287,9.287,9.287c0.064,0,0.129,0,0.194-0.002c2.476-0.043,4.628-0.906,6.225-2.347v1.845h2.943v-8.783V38.45
		V19.32h-2.943V32.018z M272.052,44.762c-0.012,0.006-0.024,0.012-0.037,0.018c-0.003,0.001-0.005,0.002-0.008,0.003
		c-0.799,0.366-1.715,0.567-2.728,0.567c-3.813,0-6.266-2.869-6.266-6.568s2.453-6.569,6.266-6.569c3.588,0,6.041,2.944,6.041,6.569
		C275.32,41.437,274.206,43.727,272.052,44.762z M148.612,37.182c-2.341-0.453-4.455-1.095-4.455-2.566
		c0-1.662,1.851-2.455,3.474-2.455c1.736,0,2.983,0.869,3.737,2.114l2.455-1.623c-1.209-2.265-3.513-3.209-6.004-3.209
		c-3.285,0-6.606,1.774-6.606,5.21c0,3.662,2.869,4.38,6.229,5.135c1.888,0.416,3.775,0.905,3.775,2.794
		c0,1.925-2.039,2.718-3.89,2.718c-2.076,0-3.359-0.943-4.53-2.379l-2.341,1.813c1.737,2.491,3.889,3.284,6.871,3.284
		c3.512,0,7.061-1.547,7.061-5.549C154.389,38.918,151.746,37.786,148.612,37.182z M101.77,29.443c-0.065,0-0.13,0.001-0.193,0.003
		c-5.336,0.092-9.169,3.988-9.169,9.284v17.442h2.944v-10.68c1.762,1.594,4.18,2.524,6.871,2.524c4.945,0,8.834-4.002,8.834-9.287
		C111.057,33.37,107.319,29.443,101.77,29.443z M101.618,45.299c-3.586,0-6.04-2.944-6.04-6.569c0-2.655,1.114-4.944,3.269-5.98
		c0.013-0.006,0.025-0.012,0.037-0.018c0.003-0.001,0.005-0.002,0.008-0.003c0.8-0.366,1.715-0.568,2.727-0.568
		c3.813,0,6.268,2.869,6.268,6.569S105.432,45.299,101.618,45.299z M115.404,47.565h2.945V19.023h-2.945V47.565z M165.602,45.299
		c-2.605,0-2.644-1.813-2.644-4.077v-8.834h5.211v-2.492h-5.211v-5.021h-2.944v5.021h-3.851v2.492h3.851v9.702
		c0,3.661,0.68,5.927,4.87,5.927c1.096,0,2.417-0.188,3.436-0.642l-0.112-2.681C167.413,45.11,166.47,45.299,165.602,45.299z
		 M249.425,29.443c-2.906,0-5.097,1.623-5.89,3.36h-0.075c0-0.981-0.075-1.963-0.075-2.907h-2.794c0,1.17,0.15,2.566,0.15,4.19
		v13.479h2.944v-8.609c0-4.038,1.662-6.795,5.475-6.795c2.756,0,4.04,1.851,4.04,4.795v10.609h2.945V36.654
		C256.146,32.388,254.068,29.443,249.425,29.443z M172.057,47.565h2.945V29.896h-2.945V47.565z M188.97,32.161
		c1.775,0,3.21,0.643,4.455,2.152l2.341-2.077c-1.774-1.924-4.191-2.793-6.796-2.793c-5.437,0-9.136,3.927-9.136,9.287
		c0,5.437,3.662,9.287,9.136,9.287c2.568,0,4.983-0.868,6.683-2.831l-2.189-2.076c-1.096,1.51-2.567,2.189-4.493,2.189
		c-3.586,0-5.965-2.944-5.965-6.569S185.006,32.161,188.97,32.161z M173.529,20.835c-1.207,0-2.152,0.981-2.152,2.152
		c0,1.245,0.906,2.151,2.152,2.151s2.151-0.906,2.151-2.151C175.681,21.817,174.737,20.835,173.529,20.835z M290.019,29.51
		c-2.567,0-5.211,0.868-7.022,2.718l1.85,1.925c1.397-1.282,3.36-1.925,5.248-1.925c2.756,0,4.38,1.322,4.38,3.889v0.528h-1.133
		c-4.342,0-11.138,0.34-11.138,6.192c0,3.435,2.982,5.247,6.569,5.247c0.012,0,0.021,0,0.034,0l-0.004,0.005
		c0,0,3.175,0.162,5.671-1.44v0.916h2.944V40.8V38.45v-1.465C297.418,32.001,295.229,29.51,290.019,29.51z M294.474,40.271
		c-0.077,2.868-1.813,5.322-5.211,5.322c-2.227,0-3.888-0.831-3.888-3.059c0-2.378,2.416-3.396,6.153-3.396h2.945V40.271z
		 M228.873,29.51c-2.566,0-5.21,0.868-7.022,2.718l1.851,1.925c1.396-1.282,3.359-1.925,5.247-1.925c2.756,0,4.38,1.322,4.38,3.889
		v0.528h-1.133c-4.342,0-11.138,0.34-11.138,6.192c0,3.435,2.983,5.247,6.569,5.247c0.012,0,0.023,0,0.034,0l-0.004,0.005
		c0,0,3.176,0.162,5.671-1.44v0.916h2.944V40.8V38.45v-1.465C236.272,32.001,234.083,29.51,228.873,29.51z M233.328,40.272
		c-0.077,2.869-1.813,5.321-5.21,5.321c-2.228,0-3.889-0.831-3.889-3.059c0-2.378,2.416-3.396,6.153-3.396h2.945V40.272z
		 M130.229,29.51c-2.567,0-5.21,0.868-7.022,2.718l1.85,1.925c1.396-1.282,3.36-1.925,5.248-1.925c2.756,0,4.379,1.322,4.379,3.889
		v0.528h-1.133c-4.341,0-11.137,0.34-11.137,6.192c0,3.435,2.982,5.247,6.569,5.247c0.011,0,0.022,0,0.034,0l-0.005,0.005
		c0,0,3.176,0.162,5.671-1.44v0.916h2.945V40.8V38.45v-1.465C137.629,32.001,135.438,29.51,130.229,29.51z M134.684,40.271
		c-0.075,2.868-1.813,5.322-5.21,5.322c-2.228,0-3.889-0.831-3.889-3.059c0-2.378,2.417-3.396,6.154-3.396h2.944V40.271z"/>
</g>
</svg>
